<svg xmlns="http://www.w3.org/2000/svg" xmlns:xlink="http://www.w3.org/1999/xlink" viewBox="0 0 256.13 145.56"><defs><style>.cls-1{fill:url(#Dégradé_sans_nom_12);}.cls-2{fill:url(#Dégradé_sans_nom_12-2);}.cls-3{fill:url(#Dégradé_sans_nom_12-3);}.cls-4{fill:url(#Dégradé_sans_nom_12-4);}.cls-5{fill:url(#Dégradé_sans_nom_12-5);}.cls-6{fill:url(#Dégradé_sans_nom_12-6);}.cls-7{fill:url(#Dégradé_sans_nom_12-7);}.cls-8{fill:url(#Dégradé_sans_nom_12-8);}.cls-9{fill:url(#Dégradé_sans_nom_12-9);}.cls-10{fill:url(#Dégradé_sans_nom_12-10);}.cls-11{fill:url(#Dégradé_sans_nom_12-11);}</style><linearGradient id="Dégradé_sans_nom_12" x1="1.37" y1="19.81" x2="74.29" y2="19.81" gradientUnits="userSpaceOnUse"><stop offset="0" stop-color="#05b0f8"/><stop offset="1" stop-color="#3e1fba"/></linearGradient><linearGradient id="Dégradé_sans_nom_12-2" x1="17.03" y1="19.81" x2="89.95" y2="19.81" xlink:href="#Dégradé_sans_nom_12"/><linearGradient id="Dégradé_sans_nom_12-3" x1="122.95" y1="19.81" x2="214.87" y2="19.81" xlink:href="#Dégradé_sans_nom_12"/><linearGradient id="Dégradé_sans_nom_12-4" x1="170.3" y1="19.81" x2="256.13" y2="19.81" xlink:href="#Dégradé_sans_nom_12"/><linearGradient id="Dégradé_sans_nom_12-5" x1="1.37" y1="123" x2="83.27" y2="123" xlink:href="#Dégradé_sans_nom_12"/><linearGradient id="Dégradé_sans_nom_12-6" x1="43.56" y1="123" x2="120.03" y2="123" xlink:href="#Dégradé_sans_nom_12"/><linearGradient id="Dégradé_sans_nom_12-7" x1="0" y1="70.92" x2="81.88" y2="70.92" xlink:href="#Dégradé_sans_nom_12"/><linearGradient id="Dégradé_sans_nom_12-8" x1="41.48" y1="71.47" x2="117.94" y2="71.47" xlink:href="#Dégradé_sans_nom_12"/><linearGradient id="Dégradé_sans_nom_12-9" x1="122.95" y1="70.92" x2="195.61" y2="70.92" xlink:href="#Dégradé_sans_nom_12"/><linearGradient id="Dégradé_sans_nom_12-10" x1="160.39" y1="70.92" x2="228.23" y2="70.92" xlink:href="#Dégradé_sans_nom_12"/><linearGradient id="Dégradé_sans_nom_12-11" x1="122.95" y1="123" x2="174.75" y2="123" xlink:href="#Dégradé_sans_nom_12"/></defs><g id="Calque_2" data-name="Calque 2"><g id="Calque_2-2" data-name="Calque 2"><path class="cls-1" d="M74.29,8.09a36.77,36.77,0,0,1-36.15,30.1A36.49,36.49,0,0,1,17,31.52,36.71,36.71,0,0,1,1.37,1.42H53.18A36.51,36.51,0,0,1,74.29,8.09Z"/><path class="cls-2" d="M90,38.19H38.14A36.49,36.49,0,0,1,17,31.52,36.77,36.77,0,0,1,90,38.19Z"/><path class="cls-3" d="M214.86,39.61H123C123,17.73,143.53,0,168.91,0S214.86,17.73,214.86,39.61Z"/><path class="cls-4" d="M256.12,0c0,21.88-19.21,39.61-42.9,39.61S170.31,21.88,170.31,0Z"/><path class="cls-5" d="M83.26,142.81H1.38c0-21.88,18.33-39.61,40.94-39.61S83.26,120.93,83.26,142.81Z"/><path class="cls-6" d="M120,103.2c0,21.87-17.11,39.61-38.22,39.61S43.57,125.07,43.57,103.2Z"/><path class="cls-7" d="M0,50.55l81.87,1.23C81.54,73.94,63,91.62,40.34,91.28S-.33,72.71,0,50.55Z"/><path class="cls-8" d="M41.49,91.27c0-21.87,17.11-39.61,38.22-39.61s38.23,17.74,38.23,39.61Z"/><path class="cls-9" d="M195.61,90.14H123c0-21.23,16.27-38.44,36.33-38.44S195.61,68.91,195.61,90.14Z"/><path class="cls-10" d="M228.23,51.7c0,21.23-15.19,38.44-33.92,38.44S160.39,72.93,160.39,51.7Z"/><path class="cls-11" d="M174.75,100.44c-.83,25-23.69,45.1-51.77,45.12h0v-1.67C123,119.89,146.14,100.46,174.75,100.44Z"/><path class="cls-11" d="M174.75,100.44c-.83,25-23.69,45.1-51.77,45.12,0-.55,0-1.12,0-1.67C123,119.89,146.14,100.46,174.75,100.44Z"/></g></g></svg>