<svg xmlns="http://www.w3.org/2000/svg" xmlns:xlink="http://www.w3.org/1999/xlink" viewBox="0 0 1577.99 284.19"><defs><style>.cls-1{font-size:203.38px;font-family:TypoGraphica;}.cls-2{letter-spacing:0em;}.cls-3{letter-spacing:-0.02em;}.cls-4{fill:url(#Dégradé_sans_nom_12);}.cls-5{fill:url(#Dégradé_sans_nom_12-2);}.cls-6{fill:url(#Dégradé_sans_nom_12-3);}.cls-7{fill:url(#Dégradé_sans_nom_12-4);}.cls-8{fill:url(#Dégradé_sans_nom_12-5);}.cls-9{font-size:188.95px;font-family:Poppins-SemiBold, Poppins;font-weight:600;}.cls-10{fill:url(#Dégradé_sans_nom_12-6);}.cls-11{fill:url(#Dégradé_sans_nom_12-7);}.cls-12{fill:url(#Dégradé_sans_nom_12-8);}.cls-13{fill:url(#Dégradé_sans_nom_12-9);}.cls-14{fill:url(#Dégradé_sans_nom_12-10);}.cls-15{fill:url(#Dégradé_sans_nom_12-11);}.cls-16{fill:url(#Dégradé_sans_nom_12-12);}.cls-17{fill:url(#Dégradé_sans_nom_12-13);}.cls-18{fill:url(#Dégradé_sans_nom_12-14);}.cls-19{fill:url(#Dégradé_sans_nom_12-15);}.cls-20{fill:url(#Dégradé_sans_nom_12-16);}</style><linearGradient id="Dégradé_sans_nom_12" x1="1203.19" y1="101.64" x2="1288.5" y2="101.64" gradientUnits="userSpaceOnUse"><stop offset="0" stop-color="#05b0f8"/><stop offset="1" stop-color="#3e1fba"/></linearGradient><linearGradient id="Dégradé_sans_nom_12-2" x1="1278.67" y1="120.81" x2="1395.16" y2="120.81" xlink:href="#Dégradé_sans_nom_12"/><linearGradient id="Dégradé_sans_nom_12-3" x1="1400.12" y1="98.76" x2="1433.09" y2="98.76" xlink:href="#Dégradé_sans_nom_12"/><linearGradient id="Dégradé_sans_nom_12-4" x1="1438.06" y1="119.27" x2="1490.2" y2="119.27" xlink:href="#Dégradé_sans_nom_12"/><linearGradient id="Dégradé_sans_nom_12-5" x1="1495.16" y1="120.96" x2="1577.99" y2="120.96" xlink:href="#Dégradé_sans_nom_12"/><linearGradient id="Dégradé_sans_nom_12-6" x1="1.37" y1="51.64" x2="74.29" y2="51.64" xlink:href="#Dégradé_sans_nom_12"/><linearGradient id="Dégradé_sans_nom_12-7" x1="17.03" y1="51.64" x2="89.95" y2="51.64" xlink:href="#Dégradé_sans_nom_12"/><linearGradient id="Dégradé_sans_nom_12-8" x1="122.95" y1="51.64" x2="214.87" y2="51.64" xlink:href="#Dégradé_sans_nom_12"/><linearGradient id="Dégradé_sans_nom_12-9" x1="170.3" y1="51.64" x2="256.13" y2="51.64" xlink:href="#Dégradé_sans_nom_12"/><linearGradient id="Dégradé_sans_nom_12-10" x1="1.37" y1="154.84" x2="83.27" y2="154.84" xlink:href="#Dégradé_sans_nom_12"/><linearGradient id="Dégradé_sans_nom_12-11" x1="43.56" y1="154.84" x2="120.03" y2="154.84" xlink:href="#Dégradé_sans_nom_12"/><linearGradient id="Dégradé_sans_nom_12-12" x1="0" y1="102.76" x2="81.88" y2="102.76" xlink:href="#Dégradé_sans_nom_12"/><linearGradient id="Dégradé_sans_nom_12-13" x1="41.48" y1="103.3" x2="117.94" y2="103.3" xlink:href="#Dégradé_sans_nom_12"/><linearGradient id="Dégradé_sans_nom_12-14" x1="122.95" y1="102.76" x2="195.61" y2="102.76" xlink:href="#Dégradé_sans_nom_12"/><linearGradient id="Dégradé_sans_nom_12-15" x1="160.39" y1="102.76" x2="228.23" y2="102.76" xlink:href="#Dégradé_sans_nom_12"/><linearGradient id="Dégradé_sans_nom_12-16" x1="122.95" y1="154.84" x2="174.75" y2="154.84" xlink:href="#Dégradé_sans_nom_12"/></defs><g id="Calque_2" data-name="Calque 2"><g id="Calque_2-2" data-name="Calque 2"><text class="cls-1" transform="translate(275.19 172.15)"><tspan class="cls-2">B</tspan><tspan x="107.65" y="0">usine</tspan><tspan class="cls-3" x="539.05" y="0">s</tspan><tspan x="622.87" y="0">s</tspan></text><path class="cls-4" d="M1203.19,172V31.23h85.31V61.12h-50.75V85.46h27.91l8,29.69h-36v56.9Z"/><path class="cls-5" d="M1363.58,169.17q-3.18,1.4-4.67,1.89a61.87,61.87,0,0,1-50.75-3,56.48,56.48,0,0,1-21.45-19.46,52.49,52.49,0,0,1-3.37-49.56,53.94,53.94,0,0,1,12.81-17.28,55.46,55.46,0,0,1,18.67-11.22,61.16,61.16,0,0,1,22-4.07,63,63,0,0,1,22.05,4,55.64,55.64,0,0,1,18.67,11.32,54.3,54.3,0,0,1,12.91,17.28,50.71,50.71,0,0,1,4.67,21.65l-.1,51.74-31.48-.3ZM1314,107.9a23.66,23.66,0,0,0-3.67,12.81,24.33,24.33,0,0,0,7.94,18.17,26.74,26.74,0,0,0,37.24,0,24.34,24.34,0,0,0,8-18.17,23.67,23.67,0,0,0-3.68-12.81,27.12,27.12,0,0,0-9.83-9.34,27,27,0,0,0-26.12,0A27.2,27.2,0,0,0,1314,107.9Z"/><path class="cls-6" d="M1430.91,50.2a17.09,17.09,0,0,1-6,6,16.53,16.53,0,0,1-16.58.1,17,17,0,0,1-8.25-14.5,16.31,16.31,0,0,1,2.19-8.34,17.74,17.74,0,0,1,6.06-6.06,15.74,15.74,0,0,1,8.24-2.18,16.33,16.33,0,0,1,8.34,2.18,16.9,16.9,0,0,1,6,6.06,16.4,16.4,0,0,1,2.18,8.34A16.25,16.25,0,0,1,1430.91,50.2ZM1433,70.56V172.35h-31.68V70.66Z"/><path class="cls-7" d="M1490.2,97a12.37,12.37,0,0,0-6.46-1.89H1482q-12.1.5-12.11,16.88v60.18h-31.78V112q0-43.39,43.89-45.58h1.79a51,51,0,0,1,6.46.59Z"/><path class="cls-8" d="M1511.25,140.17a31.31,31.31,0,0,0,23,9.44q14.2,0,14.2-8.34,0-4.38-7.84-6.46-5.57-1.29-17.68-4.47a35.08,35.08,0,0,1-16.59-9.53q-6.64-6.86-6.65-21,0-10.94,5.46-18.48a32.89,32.89,0,0,1,14.4-11.12,51.94,51.94,0,0,1,19.76-3.67,47,47,0,0,1,12.32,1.69,59.55,59.55,0,0,1,12.11,5.16,54.86,54.86,0,0,1,10.33,7.35l-17.48,17.38A27.14,27.14,0,0,0,1540,92.31q-10.83,0-10.82,6.06,0,5.46,8,7.64,8.83,2.38,17.78,4.47a34.24,34.24,0,0,1,16.38,9.14q6.66,6.75,6.66,21.25a30.74,30.74,0,0,1-5.76,18.67,34.51,34.51,0,0,1-15.4,11.82,50.83,50.83,0,0,1-20,4.07,79.53,79.53,0,0,1-15.59-1.39,48,48,0,0,1-13-4.37,82.86,82.86,0,0,1-13.11-8.24Z"/><text class="cls-9" transform="translate(1020.25 172.15)">&amp;</text><path class="cls-10" d="M74.29,39.93A36.77,36.77,0,0,1,1.37,33.26H53.18A36.51,36.51,0,0,1,74.29,39.93Z"/><path class="cls-11" d="M90,70H38.14A36.48,36.48,0,0,1,17,63.36,36.77,36.77,0,0,1,90,70Z"/><path class="cls-12" d="M214.86,71.45H123c0-21.88,20.58-39.61,46-39.61S214.86,49.57,214.86,71.45Z"/><path class="cls-13" d="M256.12,31.84c0,21.87-19.21,39.61-42.9,39.61s-42.91-17.74-42.91-39.61Z"/><path class="cls-14" d="M83.26,174.64H1.38C1.38,152.77,19.71,135,42.32,135S83.26,152.77,83.26,174.64Z"/><path class="cls-15" d="M120,135c0,21.88-17.11,39.61-38.22,39.61S43.57,156.91,43.57,135Z"/><path class="cls-16" d="M0,82.39l81.87,1.23c-.34,22.15-18.93,39.84-41.54,39.5S-.33,104.54,0,82.39Z"/><path class="cls-17" d="M41.49,123.11c0-21.88,17.11-39.61,38.22-39.61s38.23,17.73,38.23,39.61Z"/><path class="cls-18" d="M195.61,122H123c0-21.22,16.27-38.43,36.33-38.43S195.61,100.75,195.61,122Z"/><path class="cls-19" d="M228.23,83.54c0,21.23-15.19,38.43-33.92,38.43s-33.92-17.2-33.92-38.43Z"/><path class="cls-20" d="M174.75,132.28c-.83,25-23.69,45.1-51.77,45.12h0v-1.67C123,151.73,146.14,132.29,174.75,132.28Z"/><path class="cls-20" d="M174.75,132.28c-.83,25-23.69,45.1-51.77,45.12,0-.55,0-1.12,0-1.67C123,151.73,146.14,132.29,174.75,132.28Z"/></g></g></svg>